<svg width="400" height="300" viewBox="0 0 400 300" fill="none" xmlns="http://www.w3.org/2000/svg">
<rect width="400" height="300" rx="10" fill="#D9D9D9"/>
<path d="M172 186C169.8 186 167.917 185.217 166.35 183.65C164.783 182.083 164 180.2 164 178V122C164 119.8 164.783 117.917 166.35 116.35C167.917 114.783 169.8 114 172 114H208V122H172V178H228V142H236V178C236 180.2 235.217 182.083 233.65 183.65C232.083 185.217 230.2 186 228 186H172ZM220 138V130H212V122H220V114H228V122H236V130H228V138H220ZM176 170H224L209 150L197 166L188 154L176 170Z" fill="#FF0099"/>
</svg>
